<?xml version="1.0" encoding="UTF-8" standalone="no"?>
<svg
   viewBox="0 0 2.21473 2.122658"
   version="1.1"
   id="svg1"
   xmlns="http://www.w3.org/2000/svg"
   xmlns:svg="http://www.w3.org/2000/svg">
  <defs
     id="defs1">
    <clipPath
       clipPathUnits="userSpaceOnUse"
       id="clipPath4372">
      <path
         d="M 0,0 H 612 V 792 H 0 Z"
         transform="translate(-303.42401,-53.522199)"
         id="path4372" />
    </clipPath>
  </defs>
  <g
     id="layer1"
     transform="translate(-25.135416,-71.96667)">
    <g
       id="g4371"
       transform="matrix(0.26458333,0,0,0.26458333,-81.380053,-186.49593)">
      <path
         id="path4371"
         d="M 0,0 C -0.049,0 -0.097,0.015 -0.139,0.045 -0.213,0.1 -0.25,0.195 -0.232,0.287 l 0.34,1.75 -1.288,1.215 c -0.066,0.063 -0.092,0.16 -0.063,0.25 0.028,0.089 0.105,0.153 0.197,0.164 l 1.743,0.213 0.737,1.62 c 0.039,0.084 0.123,0.139 0.214,0.139 0.093,0 0.177,-0.055 0.215,-0.139 L 2.6,3.879 4.343,3.666 C 4.435,3.655 4.512,3.591 4.54,3.502 4.568,3.412 4.543,3.315 4.475,3.252 L 3.189,2.037 3.529,0.287 C 3.546,0.195 3.51,0.1 3.436,0.045 3.394,0.015 3.345,0 3.297,0 3.258,0 3.217,0.01 3.182,0.029 L 1.648,0.899 0.115,0.029 C 0.08,0.01 0.039,0 0,0"
         style="fill:#ec008c;fill-opacity:1;fill-rule:nonzero;stroke:none"
         transform="matrix(1.3333333,0,0,-1.3333333,404.56533,984.63707)"
         clip-path="url(#clipPath4372)" />
    </g>
    <path
       id="path4373"
       d="m 26.242709,72.133534 0.280106,0.603956 0.6604,0.07938 -0.487539,0.452966 0.128411,0.652992 -0.581378,-0.32385 -0.581378,0.32385 0.128411,-0.652992 -0.487539,-0.452966 0.6604,-0.07938 z m 0,-0.166864 c -0.06491,0 -0.123825,0.03775 -0.151342,0.09701 l -0.240594,0.519289 -0.568678,0.06879 c -0.06421,0.0074 -0.118533,0.05186 -0.138642,0.113594 -0.01975,0.06209 -0.0025,0.129822 0.04516,0.173919 l 0.419806,0.38982 -0.11042,0.561975 c -0.01305,0.06315 0.0127,0.128411 0.06526,0.166511 0.02893,0.02152 0.0635,0.03175 0.09807,0.03175 0.02787,0 0.05574,-0.0063 0.08114,-0.02081 l 0.500239,-0.278694 0.500239,0.278694 c 0.0254,0.01446 0.05327,0.02081 0.08114,0.02081 0.03457,0 0.06879,-0.01023 0.09807,-0.03175 0.05256,-0.0381 0.07832,-0.103364 0.06526,-0.166511 l -0.11042,-0.561975 0.419806,-0.38982 c 0.04763,-0.0441 0.06526,-0.11183 0.04516,-0.173919 -0.02011,-0.06174 -0.07444,-0.106186 -0.138642,-0.113594 l -0.568678,-0.06879 -0.240594,-0.519289 c -0.02752,-0.05927 -0.08643,-0.09701 -0.151342,-0.09701"
       style="fill:#ffffff;fill-opacity:1;fill-rule:nonzero;stroke:none;stroke-width:0.352778" />
  </g>
</svg>
