<?xml version="1.0" encoding="UTF-8" standalone="no"?>
<!DOCTYPE svg PUBLIC "-//W3C//DTD SVG 1.1//EN" "http://www.w3.org/Graphics/SVG/1.1/DTD/svg11.dtd">
<svg width="100%" height="100%" viewBox="0 0 34 31" version="1.1" xmlns="http://www.w3.org/2000/svg" xmlns:xlink="http://www.w3.org/1999/xlink" xml:space="preserve" xmlns:serif="http://www.serif.com/" style="fill-rule:evenodd;clip-rule:evenodd;">
    <g transform="matrix(4.16667,0,0,4.16667,16.9458,30.9292)">
        <path d="M0,-7.423C-0.103,-7.423 -0.23,-7.359 -0.263,-7.262C-0.263,-7.262 -1.082,-4.949 -1.126,-4.826L-3.814,-4.826C-3.919,-4.826 -4.022,-4.728 -4.054,-4.627C-4.063,-4.601 -4.067,-4.569 -4.067,-4.54C-4.067,-4.457 -4.035,-4.371 -3.973,-4.325C-3.973,-4.325 -1.94,-2.886 -1.82,-2.8C-1.867,-2.664 -2.648,-0.378 -2.648,-0.378C-2.654,-0.357 -2.657,-0.337 -2.657,-0.318C-2.657,-0.232 -2.605,-0.138 -2.539,-0.086C-2.457,-0.024 -2.318,0 -2.231,-0.057C-2.231,-0.057 -0.095,-1.498 0,-1.563C0.244,-1.397 2.196,-0.059 2.196,-0.059C2.282,0 2.423,-0.024 2.506,-0.085C2.572,-0.138 2.625,-0.232 2.625,-0.318C2.625,-0.337 2.622,-0.357 2.615,-0.378C2.615,-0.378 1.835,-2.664 1.787,-2.8C2.104,-3.027 3.938,-4.325 3.938,-4.325C4.002,-4.371 4.033,-4.457 4.033,-4.54C4.033,-4.57 4.029,-4.601 4.021,-4.627C3.989,-4.728 3.885,-4.826 3.78,-4.826L1.094,-4.826C0.979,-5.162 0.264,-7.259 0.264,-7.259C0.23,-7.356 0.104,-7.423 0.001,-7.423L0,-7.423Z" style="fill:white;fill-rule:nonzero;"/>
    </g>
    <g transform="matrix(4.16667,0,0,4.16667,11.0929,19.5171)">
        <path d="M0,1.161L0,1.159L0,1.161ZM-2.206,0.296L-2.26,0.652L-2.275,0.778C-2.306,0.819 -2.333,0.907 -2.313,0.992C-2.288,1.104 -2.19,1.191 -2.038,1.237L-0.529,1.687L-0.485,1.712C-0.435,1.741 -0.34,1.779 -0.287,1.756C-0.233,1.735 -0.158,1.724 -0.142,1.667L0,1.161C0.023,1.076 0.033,1.011 0.033,0.958C0.033,0.839 -0.011,0.791 -0.029,0.771C-0.056,0.741 -0.157,0.712 -0.196,0.703C-0.196,0.703 -0.289,0.682 -0.371,0.665C-0.356,0.594 -0.341,0.526 -0.341,0.455C-0.341,0.038 -0.599,-0.337 -1.009,-0.457C-1.543,-0.618 -2.034,-0.307 -2.206,0.296" style="fill:white;fill-rule:nonzero;"/>
    </g>
    <g transform="matrix(4.16667,0,0,4.16667,11.0929,19.5171)">
        <path d="M0,1.161L0,1.159L0,1.161ZM-2.206,0.296L-2.26,0.652L-2.275,0.778C-2.306,0.819 -2.333,0.907 -2.313,0.992C-2.288,1.104 -2.19,1.191 -2.038,1.237L-0.529,1.687L-0.485,1.712C-0.435,1.741 -0.34,1.779 -0.287,1.756C-0.233,1.735 -0.158,1.724 -0.142,1.667L0,1.161C0.023,1.076 0.033,1.011 0.033,0.958C0.033,0.839 -0.011,0.791 -0.029,0.771C-0.056,0.741 -0.157,0.712 -0.196,0.703C-0.196,0.703 -0.289,0.682 -0.371,0.665C-0.356,0.594 -0.341,0.526 -0.341,0.455C-0.341,0.038 -0.599,-0.337 -1.009,-0.457C-1.543,-0.618 -2.034,-0.307 -2.206,0.296" style="fill:white;fill-rule:nonzero;"/>
    </g>
    <g transform="matrix(4.16667,0,0,4.16667,9.71125,15.1725)">
        <path d="M0,1.223C0,1.225 -0.002,1.222 0,1.223M-0.753,-0.286L-0.97,-0.046L-1.042,0.043L-1.087,0.06C-1.138,0.082 -1.211,0.135 -1.222,0.19C-1.236,0.244 -1.257,0.307 -1.221,0.349L-0.264,1.451L-0.108,1.642C-0.061,1.7 -0.003,1.769 0.065,1.745L0.343,1.656L0.702,1.344C0.722,1.324 0.727,1.299 0.727,1.272C0.727,1.256 0.726,1.211 0.726,1.21C0.726,1.16 0.675,1.107 0.642,1.076C0.642,1.076 0.608,1.038 0.585,1.017C0.608,1.063 0.654,1.117 0.725,1.14C0.822,1.173 0.939,1.137 1.044,1.048L1.402,0.737C1.444,0.702 1.422,0.633 1.421,0.581C1.418,0.527 1.349,0.462 1.307,0.429L1.268,0.402C1.08,0.184 0.812,0.067 0.554,0.078C0.5,-0.075 0.439,-0.249 0.439,-0.249C0.293,-0.419 0.108,-0.516 -0.093,-0.532C-0.32,-0.546 -0.552,-0.46 -0.753,-0.286" style="fill:white;fill-rule:nonzero;"/>
    </g>
    <g transform="matrix(4.16667,0,0,4.16667,9.71125,15.1725)">
        <path d="M0,1.223C0,1.225 -0.002,1.222 0,1.223M-0.753,-0.286L-0.97,-0.046L-1.042,0.043L-1.087,0.06C-1.138,0.082 -1.211,0.135 -1.222,0.19C-1.236,0.244 -1.257,0.307 -1.221,0.349L-0.264,1.451L-0.108,1.642C-0.061,1.7 -0.003,1.769 0.065,1.745L0.343,1.656L0.702,1.344C0.722,1.324 0.727,1.299 0.727,1.272C0.727,1.256 0.726,1.211 0.726,1.21C0.726,1.16 0.675,1.107 0.642,1.076C0.642,1.076 0.608,1.038 0.585,1.017C0.608,1.063 0.654,1.117 0.725,1.14C0.822,1.173 0.939,1.137 1.044,1.048L1.402,0.737C1.444,0.702 1.422,0.633 1.421,0.581C1.418,0.527 1.349,0.462 1.307,0.429L1.268,0.402C1.08,0.184 0.812,0.067 0.554,0.078C0.5,-0.075 0.439,-0.249 0.439,-0.249C0.293,-0.419 0.108,-0.516 -0.093,-0.532C-0.32,-0.546 -0.552,-0.46 -0.753,-0.286" style="fill:white;fill-rule:nonzero;"/>
    </g>
    <g transform="matrix(4.16667,0,0,4.16667,25.4762,22.2067)">
        <path d="M0,0.002C0,-0.021 -0.005,0.023 0,0.002" style="fill:white;fill-rule:nonzero;"/>
    </g>
    <g transform="matrix(4.16667,0,0,4.16667,27.3742,26.8579)">
        <path d="M0,-2.297C-0.616,-2.256 -1.085,-1.707 -1.041,-1.075C-1.021,-0.766 -0.878,-0.475 -0.649,-0.275C-0.427,-0.079 -0.141,0.018 0.153,-0.002C0.448,-0.023 0.716,-0.156 0.91,-0.377C1.112,-0.607 1.216,-0.915 1.195,-1.224C1.174,-1.531 1.03,-1.823 0.803,-2.025C0.579,-2.219 0.296,-2.315 0,-2.297" style="fill:white;fill-rule:nonzero;"/>
    </g>
    <g transform="matrix(4.16667,0,0,4.16667,27.3742,26.8579)">
        <path d="M0,-2.297C-0.616,-2.256 -1.085,-1.707 -1.041,-1.075C-1.021,-0.766 -0.878,-0.475 -0.649,-0.275C-0.427,-0.079 -0.141,0.018 0.153,-0.002C0.448,-0.023 0.716,-0.156 0.91,-0.377C1.112,-0.607 1.216,-0.915 1.195,-1.224C1.174,-1.531 1.03,-1.823 0.803,-2.025C0.579,-2.219 0.296,-2.315 0,-2.297" style="fill:white;fill-rule:nonzero;"/>
    </g>
    <g transform="matrix(4.16667,0,0,4.16667,22.7296,22.6867)">
        <path d="M0,-2.67C-0.055,-2.647 -0.097,-2.568 -0.106,-2.512L-0.101,-2.543C-0.11,-2.527 -0.303,-2.355 -0.303,-2.355L-1.151,-1.59C-1.228,-1.56 -1.291,-1.498 -1.311,-1.419C-1.333,-1.324 -1.288,-1.225 -1.185,-1.147L-0.824,-0.867C-0.778,-0.832 -0.714,-0.852 -0.656,-0.875C-0.599,-0.899 -0.561,-0.979 -0.554,-1.039L-0.558,-1.009C-0.548,-1.021 -0.495,-1.083 -0.493,-1.084C-0.493,-1.084 -0.483,-1.093 -0.482,-1.096C-0.497,-1.055 -0.531,-0.972 -0.531,-0.972C-0.546,-0.931 -0.554,-0.897 -0.556,-0.866C-0.561,-0.771 -0.51,-0.716 -0.482,-0.694C-0.446,-0.666 -0.344,-0.607 -0.186,-0.702C-0.186,-0.702 -0.131,-0.734 -0.059,-0.776C-0.084,-0.741 -0.12,-0.69 -0.12,-0.69C-0.141,-0.686 -0.194,-0.63 -0.211,-0.563C-0.213,-0.553 -0.215,-0.54 -0.217,-0.528C-0.22,-0.446 -0.17,-0.359 -0.068,-0.282L0.293,-0.004C0.351,0.04 0.43,0.044 0.492,0.003C0.54,-0.027 0.567,-0.075 0.57,-0.126C0.57,-0.143 0.568,-0.161 0.564,-0.178C0.564,-0.178 0.56,-0.185 0.56,-0.189C0.605,-0.259 0.697,-0.413 0.697,-0.413L1.302,-1.364C1.303,-1.364 1.339,-1.416 1.339,-1.416C1.339,-1.42 1.316,-1.41 1.316,-1.41C1.373,-1.432 1.446,-1.485 1.457,-1.545C1.468,-1.599 1.478,-1.662 1.432,-1.698L1.118,-1.94C0.981,-2.047 0.77,-2.052 0.614,-1.964C0.629,-2.001 0.639,-2.039 0.643,-2.079C0.648,-2.212 0.593,-2.347 0.487,-2.429L0.165,-2.678C0.119,-2.714 0.057,-2.692 0,-2.67" style="fill:white;fill-rule:nonzero;"/>
    </g>
    <g transform="matrix(4.16667,0,0,4.16667,22.7296,22.6867)">
        <path d="M0,-2.67C-0.055,-2.647 -0.097,-2.568 -0.106,-2.512L-0.101,-2.543C-0.11,-2.527 -0.303,-2.355 -0.303,-2.355L-1.151,-1.59C-1.228,-1.56 -1.291,-1.498 -1.311,-1.419C-1.333,-1.324 -1.288,-1.225 -1.185,-1.147L-0.824,-0.867C-0.778,-0.832 -0.714,-0.852 -0.656,-0.875C-0.599,-0.899 -0.561,-0.979 -0.554,-1.039L-0.558,-1.009C-0.548,-1.021 -0.495,-1.083 -0.493,-1.084C-0.493,-1.084 -0.483,-1.093 -0.482,-1.096C-0.497,-1.055 -0.531,-0.972 -0.531,-0.972C-0.546,-0.931 -0.554,-0.897 -0.556,-0.866C-0.561,-0.771 -0.51,-0.716 -0.482,-0.694C-0.446,-0.666 -0.344,-0.607 -0.186,-0.702C-0.186,-0.702 -0.131,-0.734 -0.059,-0.776C-0.084,-0.741 -0.12,-0.69 -0.12,-0.69C-0.141,-0.686 -0.194,-0.63 -0.211,-0.563C-0.213,-0.553 -0.215,-0.54 -0.217,-0.528C-0.22,-0.446 -0.17,-0.359 -0.068,-0.282L0.293,-0.004C0.351,0.04 0.43,0.044 0.492,0.003C0.54,-0.027 0.567,-0.075 0.57,-0.126C0.57,-0.143 0.568,-0.161 0.564,-0.178C0.564,-0.178 0.56,-0.185 0.56,-0.189C0.605,-0.259 0.697,-0.413 0.697,-0.413L1.302,-1.364C1.303,-1.364 1.339,-1.416 1.339,-1.416C1.339,-1.42 1.316,-1.41 1.316,-1.41C1.373,-1.432 1.446,-1.485 1.457,-1.545C1.468,-1.599 1.478,-1.662 1.432,-1.698L1.118,-1.94C0.981,-2.047 0.77,-2.052 0.614,-1.964C0.629,-2.001 0.639,-2.039 0.643,-2.079C0.648,-2.212 0.593,-2.347 0.487,-2.429L0.165,-2.678C0.119,-2.714 0.057,-2.692 0,-2.67" style="fill:white;fill-rule:nonzero;"/>
    </g>
    <g transform="matrix(4.16667,0,0,4.16667,11.1212,12.135)">
        <path d="M0,1.702C0.021,1.64 -0.005,1.557 -0.061,1.518L-1.975,0.163C-2.03,0.125 -2.02,0.092 -1.952,0.092L0.43,0.092C0.497,0.092 0.57,0.041 0.592,-0.022L1.356,-2.182C1.379,-2.243 1.414,-2.243 1.436,-2.181L2.172,-0.022C2.194,0.039 2.267,0.092 2.332,0.092L4.716,0.092C4.783,0.092 4.794,0.125 4.738,0.163L2.824,1.518C2.768,1.557 2.742,1.64 2.764,1.702L3.501,3.86C3.522,3.924 3.494,3.945 3.44,3.907L1.497,2.577C1.441,2.54 1.351,2.54 1.296,2.577L-0.676,3.907C-0.731,3.945 -0.76,3.924 -0.738,3.86L0,1.702Z" style="fill:rgb(35,31,32);fill-rule:nonzero;stroke:rgb(35,31,32);stroke-width:0.12px;"/>
    </g>
    <g transform="matrix(4.16667,0,0,4.16667,10.0592,15.3912)">
        <path d="M0,1.015C0,1.016 -0.002,1.013 0,1.015M-0.623,-0.235L-0.802,-0.037L-0.862,0.035C-0.862,0.037 -0.899,0.052 -0.899,0.052C-0.942,0.071 -1.001,0.114 -1.012,0.161C-1.022,0.203 -1.04,0.256 -1.009,0.293L-0.218,1.204L-0.088,1.361C-0.051,1.409 -0.002,1.467 0.056,1.446L0.285,1.373L0.582,1.114C0.599,1.098 0.603,1.076 0.603,1.054C0.603,1.042 0.602,1.004 0.602,1.003C0.602,0.963 0.559,0.919 0.533,0.891C0.533,0.891 0.505,0.861 0.487,0.843C0.505,0.881 0.543,0.929 0.601,0.947C0.682,0.974 0.778,0.944 0.866,0.87L1.162,0.611C1.197,0.583 1.179,0.526 1.177,0.482C1.175,0.439 1.118,0.385 1.082,0.357L1.051,0.335C0.894,0.153 0.673,0.058 0.459,0.066C0.414,-0.061 0.365,-0.206 0.365,-0.206C0.243,-0.346 0.092,-0.426 -0.077,-0.437C-0.263,-0.452 -0.456,-0.378 -0.623,-0.235" style="fill:rgb(35,31,32);fill-rule:nonzero;"/>
    </g>
    <g transform="matrix(4.16667,0,0,4.16667,10.0592,15.3912)">
        <path d="M0,1.015C0,1.016 -0.002,1.013 0,1.015M-0.623,-0.235L-0.802,-0.037L-0.862,0.035C-0.862,0.037 -0.899,0.052 -0.899,0.052C-0.942,0.071 -1.001,0.114 -1.012,0.161C-1.022,0.203 -1.04,0.256 -1.009,0.293L-0.218,1.204L-0.088,1.361C-0.051,1.409 -0.002,1.467 0.056,1.446L0.285,1.373L0.582,1.114C0.599,1.098 0.603,1.076 0.603,1.054C0.603,1.042 0.602,1.004 0.602,1.003C0.602,0.963 0.559,0.919 0.533,0.891C0.533,0.891 0.505,0.861 0.487,0.843C0.505,0.881 0.543,0.929 0.601,0.947C0.682,0.974 0.778,0.944 0.866,0.87L1.162,0.611C1.197,0.583 1.179,0.526 1.177,0.482C1.175,0.439 1.118,0.385 1.082,0.357L1.051,0.335C0.894,0.153 0.673,0.058 0.459,0.066C0.414,-0.061 0.365,-0.206 0.365,-0.206C0.243,-0.346 0.092,-0.426 -0.077,-0.437C-0.263,-0.452 -0.456,-0.378 -0.623,-0.235" style="fill:rgb(35,31,32);fill-rule:nonzero;"/>
    </g>
    <g transform="matrix(4.16667,0,0,4.16667,9.5775,14.6208)">
        <path d="M0,1.306C0.063,1.381 0.131,1.463 0.146,1.486C0.161,1.51 0.234,1.531 0.308,1.466L0.617,1.198L0.564,1.193C0.521,1.155 0.432,1.061 0.369,0.986L0.285,0.891C0.435,0.806 0.637,0.828 0.719,0.922L0.749,0.958C0.763,1.016 0.834,1.01 0.91,0.944L1.218,0.677C1.165,0.673 1.118,0.638 1.088,0.603C0.922,0.41 0.684,0.339 0.495,0.387C0.498,0.264 0.456,0.133 0.376,0.042C0.144,-0.225 -0.183,-0.19 -0.436,0.026C-0.567,0.143 -0.612,0.248 -0.684,0.308C-0.726,0.346 -0.774,0.361 -0.821,0.361L0,1.306ZM-0.288,0.3C-0.288,0.3 -0.15,0.131 -0.003,0.211C-0.003,0.211 0.043,0.237 0.137,0.368C0.23,0.501 0.114,0.579 0.029,0.653L-0.288,0.3Z" style="fill:white;fill-rule:nonzero;"/>
    </g>
    <g transform="matrix(4.16667,0,0,4.16667,25.9212,22.2367)">
        <path d="M0,0.004C0,-0.016 -0.005,0.02 0,0.004" style="fill-rule:nonzero;"/>
    </g>
    <g transform="matrix(4.16667,0,0,4.16667,27.3787,25.8092)">
        <path d="M0,-1.763C-0.473,-1.732 -0.833,-1.311 -0.8,-0.823C-0.785,-0.588 -0.676,-0.362 -0.498,-0.208C-0.327,-0.058 -0.108,0.016 0.117,0.001C0.344,-0.015 0.552,-0.116 0.702,-0.287C0.856,-0.463 0.935,-0.701 0.92,-0.938C0.905,-1.175 0.794,-1.401 0.617,-1.553C0.447,-1.703 0.227,-1.779 0,-1.763" style="fill:rgb(35,31,32);fill-rule:nonzero;"/>
    </g>
    <g transform="matrix(4.16667,0,0,4.16667,27.3787,25.8092)">
        <path d="M0,-1.763C-0.473,-1.732 -0.833,-1.311 -0.8,-0.823C-0.785,-0.588 -0.676,-0.362 -0.498,-0.208C-0.327,-0.058 -0.108,0.016 0.117,0.001C0.344,-0.015 0.552,-0.116 0.702,-0.287C0.856,-0.463 0.935,-0.701 0.92,-0.938C0.905,-1.175 0.794,-1.401 0.617,-1.553C0.447,-1.703 0.227,-1.779 0,-1.763" style="fill:rgb(35,31,32);fill-rule:nonzero;"/>
    </g>
    <g transform="matrix(4.16667,0,0,4.16667,27.4142,25.35)">
        <path d="M0,-1.541C-0.425,-1.514 -0.725,-1.138 -0.697,-0.72C-0.67,-0.305 -0.322,0.028 0.102,0C0.525,-0.028 0.827,-0.404 0.8,-0.821C0.771,-1.238 0.425,-1.569 0,-1.541M-0.257,-0.749C-0.271,-0.946 -0.139,-1.092 0.029,-1.104C0.199,-1.114 0.346,-0.987 0.359,-0.79C0.371,-0.595 0.242,-0.449 0.074,-0.438C-0.095,-0.426 -0.245,-0.553 -0.257,-0.749" style="fill:white;fill-rule:nonzero;"/>
    </g>
    <g transform="matrix(4.16667,0,0,4.16667,22.6379,21.4183)">
        <path d="M0,-2.111C-0.044,-2.094 -0.077,-2.031 -0.084,-1.985L-0.08,-2.01C-0.089,-1.998 -0.24,-1.861 -0.24,-1.861L-0.91,-1.258C-0.972,-1.235 -1.022,-1.185 -1.035,-1.123C-1.054,-1.048 -1.018,-0.97 -0.938,-0.909L-0.652,-0.687C-0.615,-0.658 -0.565,-0.674 -0.518,-0.694C-0.474,-0.712 -0.444,-0.774 -0.437,-0.823L-0.441,-0.8C-0.433,-0.809 -0.391,-0.857 -0.391,-0.858C-0.391,-0.858 -0.383,-0.867 -0.381,-0.867C-0.394,-0.837 -0.421,-0.769 -0.421,-0.769C-0.433,-0.737 -0.439,-0.709 -0.441,-0.686C-0.444,-0.609 -0.404,-0.566 -0.383,-0.55C-0.353,-0.527 -0.274,-0.483 -0.149,-0.556C-0.149,-0.556 -0.104,-0.581 -0.047,-0.615C-0.067,-0.588 -0.095,-0.547 -0.095,-0.547C-0.111,-0.543 -0.153,-0.499 -0.168,-0.445C-0.168,-0.436 -0.17,-0.428 -0.171,-0.419C-0.174,-0.355 -0.134,-0.287 -0.053,-0.223L0.231,-0.003C0.277,0.031 0.34,0.033 0.389,-0C0.425,-0.023 0.448,-0.062 0.449,-0.101C0.452,-0.115 0.448,-0.129 0.445,-0.143C0.445,-0.143 0.444,-0.147 0.442,-0.149C0.477,-0.206 0.551,-0.327 0.551,-0.327L1.028,-1.08C1.03,-1.08 1.057,-1.12 1.057,-1.12C1.057,-1.123 1.039,-1.116 1.039,-1.116C1.085,-1.132 1.144,-1.176 1.151,-1.221C1.159,-1.265 1.168,-1.316 1.132,-1.344L0.883,-1.534C0.775,-1.619 0.609,-1.624 0.487,-1.553C0.497,-1.583 0.506,-1.613 0.506,-1.645C0.513,-1.748 0.468,-1.858 0.385,-1.922L0.13,-2.117C0.094,-2.144 0.045,-2.128 0,-2.111" style="fill:rgb(35,31,32);fill-rule:nonzero;"/>
    </g>
    <g transform="matrix(4.16667,0,0,4.16667,22.6379,21.4183)">
        <path d="M0,-2.111C-0.044,-2.094 -0.077,-2.031 -0.084,-1.985L-0.08,-2.01C-0.089,-1.998 -0.24,-1.861 -0.24,-1.861L-0.91,-1.258C-0.972,-1.235 -1.022,-1.185 -1.035,-1.123C-1.054,-1.048 -1.018,-0.97 -0.938,-0.909L-0.652,-0.687C-0.615,-0.658 -0.565,-0.674 -0.518,-0.694C-0.474,-0.712 -0.444,-0.774 -0.437,-0.823L-0.441,-0.8C-0.433,-0.809 -0.391,-0.857 -0.391,-0.858C-0.391,-0.858 -0.383,-0.867 -0.381,-0.867C-0.394,-0.837 -0.421,-0.769 -0.421,-0.769C-0.433,-0.737 -0.439,-0.709 -0.441,-0.686C-0.444,-0.609 -0.404,-0.566 -0.383,-0.55C-0.353,-0.527 -0.274,-0.483 -0.149,-0.556C-0.149,-0.556 -0.104,-0.581 -0.047,-0.615C-0.067,-0.588 -0.095,-0.547 -0.095,-0.547C-0.111,-0.543 -0.153,-0.499 -0.168,-0.445C-0.168,-0.436 -0.17,-0.428 -0.171,-0.419C-0.174,-0.355 -0.134,-0.287 -0.053,-0.223L0.231,-0.003C0.277,0.031 0.34,0.033 0.389,-0C0.425,-0.023 0.448,-0.062 0.449,-0.101C0.452,-0.115 0.448,-0.129 0.445,-0.143C0.445,-0.143 0.444,-0.147 0.442,-0.149C0.477,-0.206 0.551,-0.327 0.551,-0.327L1.028,-1.08C1.03,-1.08 1.057,-1.12 1.057,-1.12C1.057,-1.123 1.039,-1.116 1.039,-1.116C1.085,-1.132 1.144,-1.176 1.151,-1.221C1.159,-1.265 1.168,-1.316 1.132,-1.344L0.883,-1.534C0.775,-1.619 0.609,-1.624 0.487,-1.553C0.497,-1.583 0.506,-1.613 0.506,-1.645C0.513,-1.748 0.468,-1.858 0.385,-1.922L0.13,-2.117C0.094,-2.144 0.045,-2.128 0,-2.111" style="fill:rgb(35,31,32);fill-rule:nonzero;"/>
    </g>
    <g transform="matrix(4.16667,0,0,4.16667,26.8817,17.7575)">
        <path d="M0,-0.379C-0.041,-0.379 -0.065,-0.361 -0.09,-0.329C-0.101,-0.316 -0.115,-0.297 -0.127,-0.275L-0.592,0.5C-0.638,0.574 -0.696,0.678 -0.725,0.733L-0.709,0.793L-0.981,0.568C-1.047,0.515 -1.071,0.462 -1.033,0.451L-1.006,0.421C-0.965,0.368 -0.93,0.304 -0.892,0.249L-0.708,-0.019C-0.658,-0.092 -0.619,-0.15 -0.619,-0.15C-0.62,-0.152 -0.681,-0.115 -0.755,-0.07L-1.22,0.219C-1.293,0.266 -1.327,0.236 -1.297,0.154L-1.106,-0.359C-1.076,-0.441 -1.052,-0.508 -1.053,-0.508C-1.054,-0.509 -1.103,-0.458 -1.162,-0.394L-1.277,-0.275C-1.335,-0.211 -1.43,-0.115 -1.485,-0.063L-1.527,-0.011C-1.554,0.02 -1.569,0.053 -1.559,0.092L-1.832,-0.133C-1.898,-0.188 -1.904,-0.246 -1.847,-0.261L-1.802,-0.298L-1.155,-0.919C-1.092,-0.979 -1.026,-1.044 -1.006,-1.062L-0.992,-1.077C-0.969,-1.107 -0.956,-1.134 -0.964,-1.172L-0.719,-0.971C-0.656,-0.919 -0.63,-0.809 -0.663,-0.728L-0.748,-0.518C-0.78,-0.438 -0.806,-0.37 -0.806,-0.369C-0.806,-0.369 -0.745,-0.407 -0.675,-0.456L-0.487,-0.584C-0.417,-0.632 -0.304,-0.629 -0.24,-0.576L0,-0.379Z" style="fill:white;fill-rule:nonzero;"/>
    </g>
    <g transform="matrix(4.16667,0,0,4.16667,9.84667,19.9871)">
        <path d="M0,0.868L0,0.865L0,0.868ZM-1.697,0.222L-1.739,0.487L-1.751,0.58C-1.773,0.612 -1.795,0.677 -1.78,0.742C-1.759,0.823 -1.684,0.89 -1.569,0.922L-0.408,1.259L-0.374,1.277C-0.334,1.299 -0.261,1.328 -0.221,1.312C-0.179,1.295 -0.122,1.286 -0.109,1.244L0,0.868C0.019,0.805 0.024,0.755 0.024,0.714C0.024,0.627 -0.009,0.589 -0.022,0.574C-0.043,0.552 -0.12,0.532 -0.151,0.524C-0.151,0.524 -0.223,0.509 -0.284,0.495C-0.274,0.443 -0.263,0.392 -0.263,0.341C-0.263,0.029 -0.462,-0.252 -0.776,-0.343C-1.186,-0.46 -1.565,-0.23 -1.697,0.222" style="fill:rgb(35,31,32);fill-rule:nonzero;"/>
    </g>
    <g transform="matrix(4.16667,0,0,4.16667,9.84667,19.9871)">
        <path d="M0,0.868L0,0.865L0,0.868ZM-1.697,0.222L-1.739,0.487L-1.751,0.58C-1.773,0.612 -1.795,0.677 -1.78,0.742C-1.759,0.823 -1.684,0.89 -1.569,0.922L-0.408,1.259L-0.374,1.277C-0.334,1.299 -0.261,1.328 -0.221,1.312C-0.179,1.295 -0.122,1.286 -0.109,1.244L0,0.868C0.019,0.805 0.024,0.755 0.024,0.714C0.024,0.627 -0.009,0.589 -0.022,0.574C-0.043,0.552 -0.12,0.532 -0.151,0.524C-0.151,0.524 -0.223,0.509 -0.284,0.495C-0.274,0.443 -0.263,0.392 -0.263,0.341C-0.263,0.029 -0.462,-0.252 -0.776,-0.343C-1.186,-0.46 -1.565,-0.23 -1.697,0.222" style="fill:rgb(35,31,32);fill-rule:nonzero;"/>
    </g>
    <g transform="matrix(4.16667,0,0,4.16667,9.3875,20.2117)">
        <path d="M0,0.782C0.027,0.688 0.024,0.615 -0.004,0.62C-0.033,0.626 -0.181,0.596 -0.275,0.568L-0.338,0.549C-0.325,0.515 -0.314,0.485 -0.304,0.454C-0.213,0.137 -0.379,-0.19 -0.703,-0.284C-1.078,-0.392 -1.369,-0.153 -1.471,0.198C-1.52,0.366 -1.501,0.48 -1.527,0.57L-1.542,0.624C-1.581,0.66 -1.535,0.711 -1.44,0.739L-0.238,1.086C-0.192,1.101 -0.142,1.128 -0.114,1.174L0,0.782ZM-1.175,0.302C-1.147,0.208 -1.036,-0.058 -0.783,0.031C-0.539,0.116 -0.671,0.453 -0.671,0.453L-1.175,0.302Z" style="fill:white;fill-rule:nonzero;"/>
    </g>
    <g transform="matrix(4.16667,0,0,4.16667,16.2358,17.4496)">
        <path d="M0,-1.605C-0.442,-1.575 -0.755,-1.184 -0.726,-0.751C-0.697,-0.317 -0.335,0.03 0.106,0.001C0.548,-0.028 0.861,-0.421 0.833,-0.855C0.803,-1.286 0.443,-1.635 0,-1.605M-0.268,-0.78C-0.281,-0.985 -0.145,-1.137 0.031,-1.149C0.206,-1.161 0.361,-1.028 0.374,-0.824C0.387,-0.619 0.253,-0.466 0.077,-0.457C-0.1,-0.444 -0.253,-0.577 -0.268,-0.78" style="fill:white;fill-rule:nonzero;"/>
    </g>
</svg>
