<?xml version="1.0" encoding="UTF-8" standalone="no"?>
<!DOCTYPE svg PUBLIC "-//W3C//DTD SVG 1.1//EN" "http://www.w3.org/Graphics/SVG/1.1/DTD/svg11.dtd">
<svg width="100%" height="100%" viewBox="0 0 29 29" version="1.1" xmlns="http://www.w3.org/2000/svg" xmlns:xlink="http://www.w3.org/1999/xlink" xml:space="preserve" xmlns:serif="http://www.serif.com/" style="fill-rule:evenodd;clip-rule:evenodd;stroke-linejoin:round;stroke-miterlimit:2;">
    <g transform="matrix(5.55556,0,0,5.55556,28.2333,14.1167)">
        <path d="M0,-0.005C0,0.337 -0.064,0.659 -0.191,0.965C-0.318,1.271 -0.501,1.547 -0.744,1.79C-0.984,2.03 -1.258,2.215 -1.566,2.342C-1.875,2.471 -2.199,2.536 -2.536,2.536C-2.882,2.536 -3.207,2.471 -3.516,2.342C-3.824,2.215 -4.098,2.03 -4.337,1.79C-4.579,1.547 -4.764,1.271 -4.89,0.965C-5.019,0.659 -5.082,0.337 -5.082,-0.005C-5.082,-0.345 -5.019,-0.668 -4.89,-0.974C-4.764,-1.282 -4.579,-1.556 -4.337,-1.799C-4.098,-2.039 -3.824,-2.222 -3.516,-2.351C-3.207,-2.479 -2.883,-2.541 -2.544,-2.541C-2.204,-2.541 -1.88,-2.479 -1.574,-2.353C-1.268,-2.225 -0.993,-2.041 -0.744,-1.799C-0.501,-1.556 -0.318,-1.282 -0.191,-0.974C-0.064,-0.668 0,-0.345 0,-0.005" style="fill:rgb(35,31,32);fill-rule:nonzero;"/>
    </g>
</svg>
