<?xml version="1.0" encoding="UTF-8" standalone="no"?>
<!DOCTYPE svg PUBLIC "-//W3C//DTD SVG 1.1//EN" "http://www.w3.org/Graphics/SVG/1.1/DTD/svg11.dtd">
<svg width="100%" height="100%" viewBox="0 0 65 50" version="1.1" xmlns="http://www.w3.org/2000/svg" xmlns:xlink="http://www.w3.org/1999/xlink" xml:space="preserve" xmlns:serif="http://www.serif.com/" style="fill-rule:evenodd;clip-rule:evenodd;stroke-linejoin:round;stroke-miterlimit:2;">
    <g transform="matrix(5.55556,0,0,5.55556,24.2215,21.6472)">
        <path d="M0,4.723C-0.036,4.723 -0.073,4.715 -0.104,4.699L-1.501,3.97L-2.898,4.699C-2.93,4.715 -2.967,4.723 -3.002,4.723C-3.047,4.723 -3.091,4.71 -3.129,4.685C-3.197,4.639 -3.23,4.56 -3.214,4.483L-2.904,3.017L-4.076,1.999C-4.137,1.946 -4.161,1.864 -4.135,1.79C-4.109,1.715 -4.039,1.661 -3.955,1.652L-2.368,1.473L-1.697,0.117C-1.662,0.046 -1.586,0 -1.501,0C-1.418,0 -1.341,0.046 -1.306,0.117L-0.634,1.473L0.953,1.652C1.036,1.661 1.107,1.715 1.132,1.79C1.158,1.864 1.135,1.946 1.075,1.999L-0.098,3.017L0.211,4.483C0.227,4.56 0.194,4.639 0.127,4.685C0.089,4.71 0.044,4.723 0,4.723" style="fill:rgb(253,186,17);fill-rule:nonzero;"/>
    </g>
    <g transform="matrix(5.55556,0,0,5.55556,15.8815,46.7728)">
        <path d="M0,-4.321L0.723,-2.863L2.428,-2.671L1.169,-1.577L1.501,-0.001L0,-0.783L-1.501,-0.001L-1.169,-1.577L-2.428,-2.671L-0.723,-2.863L0,-4.321ZM0,-4.723C-0.167,-4.723 -0.32,-4.633 -0.391,-4.49L-1.012,-3.236L-2.48,-3.07C-2.646,-3.052 -2.786,-2.945 -2.838,-2.795C-2.889,-2.646 -2.844,-2.482 -2.721,-2.375L-1.638,-1.435L-1.923,-0.078C-1.956,0.075 -1.89,0.232 -1.754,0.324C-1.678,0.376 -1.59,0.402 -1.501,0.402C-1.429,0.402 -1.357,0.385 -1.291,0.351L0,-0.322L1.291,0.351C1.357,0.385 1.429,0.402 1.501,0.402C1.59,0.402 1.679,0.376 1.754,0.324C1.89,0.232 1.956,0.075 1.923,-0.078L1.638,-1.435L2.721,-2.375C2.844,-2.482 2.889,-2.646 2.838,-2.795C2.786,-2.945 2.646,-3.052 2.48,-3.07L1.012,-3.236L0.391,-4.49C0.32,-4.633 0.167,-4.723 0,-4.723" style="fill:white;fill-rule:nonzero;"/>
    </g>
    <g transform="matrix(5.55556,0,0,5.55556,56.9626,21.6472)">
        <path d="M0,4.723C-0.036,4.723 -0.073,4.715 -0.104,4.699L-1.501,3.97L-2.897,4.699C-2.93,4.715 -2.965,4.723 -3.001,4.723C-3.047,4.723 -3.091,4.71 -3.128,4.685C-3.197,4.639 -3.229,4.56 -3.213,4.483L-2.904,3.017L-4.076,1.999C-4.137,1.946 -4.161,1.864 -4.133,1.79C-4.109,1.715 -4.039,1.661 -3.955,1.652L-2.369,1.473L-1.697,0.117C-1.661,0.046 -1.585,0 -1.501,0C-1.416,0 -1.341,0.046 -1.306,0.117L-0.633,1.473L0.953,1.652C1.038,1.661 1.107,1.715 1.132,1.79C1.158,1.864 1.136,1.946 1.075,1.999L-0.097,3.017L0.211,4.483C0.227,4.56 0.194,4.639 0.127,4.685C0.089,4.71 0.044,4.723 0,4.723" style="fill:rgb(253,186,17);fill-rule:nonzero;"/>
    </g>
    <g transform="matrix(5.55556,0,0,5.55556,48.6248,46.7728)">
        <path d="M0,-4.321L0.723,-2.863L2.428,-2.671L1.169,-1.577L1.501,-0.001L0,-0.783L-1.501,-0.001L-1.169,-1.577L-2.428,-2.671L-0.723,-2.863L0,-4.321ZM0,-4.723C-0.167,-4.723 -0.32,-4.633 -0.391,-4.49L-1.012,-3.236L-2.48,-3.07C-2.646,-3.052 -2.786,-2.945 -2.838,-2.795C-2.889,-2.646 -2.844,-2.482 -2.721,-2.375L-1.638,-1.435L-1.923,-0.078C-1.956,0.075 -1.89,0.232 -1.754,0.324C-1.679,0.376 -1.59,0.402 -1.501,0.402C-1.429,0.402 -1.357,0.385 -1.291,0.351L0,-0.322L1.291,0.351C1.357,0.385 1.429,0.402 1.501,0.402C1.59,0.402 1.678,0.376 1.754,0.324C1.89,0.232 1.956,0.075 1.923,-0.078L1.638,-1.435L2.721,-2.375C2.844,-2.482 2.889,-2.646 2.838,-2.795C2.786,-2.945 2.646,-3.052 2.48,-3.07L1.012,-3.236L0.391,-4.49C0.32,-4.633 0.167,-4.723 0,-4.723" style="fill:white;fill-rule:nonzero;"/>
    </g>
    <g transform="matrix(5.55556,0,0,5.55556,23.9148,1.11333)">
        <path d="M0,4.723C-0.044,4.723 -0.089,4.71 -0.127,4.685C-0.194,4.639 -0.227,4.56 -0.211,4.484L0.097,3.017L-1.075,1.999C-1.135,1.946 -1.158,1.864 -1.132,1.79C-1.107,1.715 -1.036,1.661 -0.953,1.652L0.633,1.473L1.306,0.117C1.341,0.046 1.416,0 1.501,0C1.585,0 1.661,0.046 1.695,0.117L2.368,1.473L3.954,1.652C4.039,1.661 4.108,1.715 4.133,1.79C4.159,1.864 4.137,1.946 4.076,1.999L2.904,3.017L3.214,4.484C3.229,4.56 3.197,4.639 3.128,4.685C3.091,4.71 3.047,4.723 3.002,4.723C2.967,4.723 2.93,4.715 2.898,4.698L1.501,3.97L0.104,4.698C0.073,4.715 0.036,4.723 0,4.723" style="fill:rgb(253,186,17);fill-rule:nonzero;"/>
    </g>
    <g transform="matrix(5.55556,0,0,5.55556,32.2532,26.2389)">
        <path d="M0,-4.321L0.723,-2.863L2.428,-2.671L1.169,-1.577L1.501,-0.001L0,-0.783L-1.501,-0.001L-1.169,-1.577L-2.428,-2.671L-0.723,-2.863L0,-4.321ZM0,-4.723C-0.167,-4.723 -0.32,-4.633 -0.391,-4.49L-1.012,-3.236L-2.48,-3.07C-2.646,-3.052 -2.786,-2.945 -2.838,-2.795C-2.889,-2.646 -2.844,-2.482 -2.721,-2.375L-1.638,-1.435L-1.923,-0.078C-1.956,0.075 -1.89,0.232 -1.754,0.324C-1.679,0.376 -1.59,0.402 -1.501,0.402C-1.429,0.402 -1.357,0.385 -1.291,0.351L0,-0.322L1.291,0.351C1.357,0.385 1.429,0.402 1.501,0.402C1.59,0.402 1.678,0.376 1.754,0.324C1.89,0.232 1.956,0.075 1.923,-0.078L1.638,-1.435L2.721,-2.375C2.844,-2.482 2.889,-2.646 2.838,-2.795C2.786,-2.945 2.646,-3.052 2.48,-3.07L1.012,-3.236L0.391,-4.49C0.32,-4.633 0.167,-4.723 0,-4.723" style="fill:white;fill-rule:nonzero;"/>
    </g>
</svg>
