<?xml version="1.0" encoding="UTF-8" standalone="no"?>

<svg
   viewBox="0 0 2.1131389 2.1129708"
   version="1.1"
   xmlns="http://www.w3.org/2000/svg"
   xmlns:svg="http://www.w3.org/2000/svg">
  <defs
     id="defs1">
    <clipPath
       clipPathUnits="userSpaceOnUse"
       id="clipPath6129">
      <path
         d="m 118.073,46.678 h 5.99 v 5.99 h -5.99 z"
         transform="translate(-121.91511,-49.205476)"
         id="path6129" />
    </clipPath>
  </defs>
  <g
     id="layer1"
     transform="translate(-190.76458,-193.14583)">
    <g
       id="g6127"
       transform="matrix(0.26458333,0,0,0.26458333,152.28605,-70.849067)">
      <g
         id="group-MC6">
        <path
           id="path6128"
           d="M 0,0 0.24,-1.267 -0.846,-0.638 -1.933,-1.267 -1.694,0 -2.605,0.879 -1.37,1.032 -0.846,2.203 -0.324,1.032 0.912,0.879 Z M 2.11,1.236 C 2.015,1.537 1.761,1.755 1.456,1.793 L 0.339,1.932 -0.133,2.991 c -0.129,0.288 -0.408,0.473 -0.713,0.473 -0.307,0 -0.585,-0.185 -0.713,-0.473 L -2.033,1.932 -3.15,1.793 C -3.454,1.755 -3.709,1.537 -3.804,1.236 -3.898,0.933 -3.815,0.602 -3.59,0.386 l 0.824,-0.794 -0.217,-1.146 c -0.059,-0.311 0.061,-0.63 0.309,-0.817 0.137,-0.103 0.299,-0.156 0.462,-0.156 0.131,0 0.263,0.034 0.382,0.103 l 0.984,0.569 0.982,-0.569 c 0.119,-0.069 0.251,-0.103 0.382,-0.103 0.164,0 0.325,0.053 0.463,0.156 0.247,0.187 0.368,0.506 0.309,0.817 l -0.218,1.146 0.825,0.794 c 0.224,0.216 0.307,0.547 0.213,0.85"
           style="fill:#fab40a;fill-opacity:1;fill-rule:nonzero;stroke:none"
           transform="matrix(1.3333333,0,0,-1.3333333,150.55347,1002.3927)"
           clip-path="url(#clipPath6129)" />
      </g>
    </g>
  </g>
</svg>
