<?xml version="1.0" encoding="UTF-8" standalone="no"?>

<svg
   viewBox="0 0 4.0583706 2.8077583"
   version="1.1"
   xmlns="http://www.w3.org/2000/svg"
   xmlns:svg="http://www.w3.org/2000/svg">
  <defs
     id="defs1">
    <clipPath
       clipPathUnits="userSpaceOnUse"
       id="clipPath6129">
      <path
         d="m 118.073,46.678 h 5.99 v 5.99 h -5.99 z"
         transform="translate(-121.91511,-49.205476)"
         id="path6129" />
    </clipPath>
    <clipPath
       clipPathUnits="userSpaceOnUse"
       id="clipPath6132">
      <path
         d="m 174.538,44.968 h 11.614 v 7.959 h -11.614 z"
         transform="translate(-181.3231,-48.384376)"
         id="path6132" />
    </clipPath>
    <clipPath
       clipPathUnits="userSpaceOnUse"
       id="clipPath6134">
      <path
         d="m 174.538,44.968 h 11.614 v 7.959 h -11.614 z"
         transform="translate(-175.8313,-50.331001)"
         id="path6134" />
    </clipPath>
  </defs>
  <g
     id="layer1"
     transform="translate(-186.26666,-191.29375)">
    <g
       id="g6130"
       transform="matrix(0.26458333,0,0,0.26458333,127.85005,-72.609781)">
      <g
         id="group-MC7">
        <path
           id="path6131"
           d="M 0,0 1.24,0.155 1.765,1.331 2.291,0.155 3.53,0 2.615,-0.882 l 0.241,-1.27 -1.091,0.63 -1.091,-0.63 0.241,1.27 z M -0.989,-0.495 -0.162,-1.292 -0.38,-2.44 c -0.059,-0.314 0.063,-0.633 0.311,-0.821 0.138,-0.104 0.3,-0.156 0.464,-0.156 0.132,0 0.264,0.033 0.384,0.104 l 0.986,0.569 0.987,-0.569 c 0.119,-0.071 0.251,-0.104 0.384,-0.104 0.163,0 0.326,0.052 0.463,0.156 0.249,0.188 0.37,0.507 0.311,0.821 l -0.218,1.148 0.827,0.797 C 4.745,-0.278 4.828,0.055 4.732,0.358 4.637,0.661 4.382,0.88 4.077,0.918 L 2.956,1.058 2.481,2.121 C 2.352,2.41 2.072,2.596 1.765,2.596 1.458,2.596 1.179,2.41 1.049,2.121 L 0.575,1.058 -0.547,0.918 C -0.852,0.88 -1.107,0.661 -1.202,0.358 -1.297,0.055 -1.215,-0.278 -0.989,-0.495"
           style="fill:#fab40a;fill-opacity:1;fill-rule:nonzero;stroke:none"
           transform="matrix(1.3333333,0,0,-1.3333333,229.76413,1003.4875)"
           clip-path="url(#clipPath6132)" />
        <path
           id="path6133"
           d="M 0,0 1.24,0.155 1.765,1.331 2.291,0.155 3.53,0 2.615,-0.882 l 0.241,-1.27 -1.091,0.63 -1.091,-0.63 0.241,1.27 z M -0.989,-0.495 -0.162,-1.292 -0.38,-2.44 c -0.059,-0.314 0.063,-0.633 0.311,-0.821 0.138,-0.104 0.3,-0.156 0.464,-0.156 0.132,0 0.264,0.033 0.384,0.104 l 0.986,0.569 0.987,-0.569 c 0.119,-0.071 0.251,-0.104 0.384,-0.104 0.163,0 0.326,0.052 0.463,0.156 0.249,0.188 0.37,0.507 0.311,0.821 l -0.218,1.148 0.827,0.797 C 4.745,-0.278 4.828,0.055 4.732,0.358 4.637,0.661 4.382,0.88 4.077,0.918 L 2.956,1.058 2.481,2.121 C 2.352,2.41 2.072,2.596 1.765,2.596 1.458,2.596 1.179,2.41 1.049,2.121 L 0.575,1.058 -0.547,0.918 C -0.852,0.88 -1.107,0.661 -1.202,0.358 -1.297,0.055 -1.215,-0.278 -0.989,-0.495"
           style="fill:#fab40a;fill-opacity:1;fill-rule:nonzero;stroke:none"
           transform="matrix(1.3333333,0,0,-1.3333333,222.44173,1000.892)"
           clip-path="url(#clipPath6134)" />
      </g>
    </g>
  </g>
</svg>
