<?xml version="1.0" encoding="UTF-8" standalone="no"?>
<!DOCTYPE svg PUBLIC "-//W3C//DTD SVG 1.1//EN" "http://www.w3.org/Graphics/SVG/1.1/DTD/svg11.dtd">
<svg width="100%" height="100%" viewBox="0 0 65 43" version="1.1" xmlns="http://www.w3.org/2000/svg" xmlns:xlink="http://www.w3.org/1999/xlink" xml:space="preserve" xmlns:serif="http://www.serif.com/" style="fill-rule:evenodd;clip-rule:evenodd;stroke-linejoin:round;stroke-miterlimit:2;">
    <g transform="matrix(5.55556,0,0,5.55556,8.28282,1.31778)">
        <path d="M0,5.544C-0.049,5.544 -0.097,5.529 -0.139,5.499C-0.213,5.445 -0.25,5.352 -0.232,5.262L0.108,3.541L-1.18,2.346C-1.246,2.284 -1.272,2.188 -1.243,2.1C-1.215,2.012 -1.138,1.949 -1.046,1.938L0.697,1.729L1.434,0.136C1.473,0.054 1.557,0 1.648,0C1.741,0 1.825,0.054 1.863,0.136L2.6,1.729L4.343,1.938C4.435,1.949 4.512,2.012 4.54,2.1C4.568,2.188 4.543,2.284 4.475,2.346L3.189,3.541L3.529,5.262C3.546,5.352 3.51,5.445 3.436,5.499C3.394,5.529 3.345,5.544 3.297,5.544C3.258,5.544 3.217,5.535 3.182,5.516L1.648,4.66L0.115,5.516C0.08,5.535 0.039,5.544 0,5.544" style="fill:rgb(253,186,17);fill-rule:nonzero;"/>
    </g>
    <g transform="matrix(5.55556,0,0,5.55556,17.44,30.8)">
        <path d="M0,-5.071L0.794,-3.359L2.666,-3.134L1.284,-1.85L1.648,0.001L0,-0.917L-1.648,0.001L-1.284,-1.85L-2.666,-3.134L-0.794,-3.359L0,-5.071ZM0,-5.544C-0.184,-5.544 -0.351,-5.437 -0.429,-5.269L-1.111,-3.797L-2.723,-3.602C-2.905,-3.581 -3.059,-3.455 -3.116,-3.28C-3.173,-3.104 -3.123,-2.912 -2.988,-2.787L-1.798,-1.682L-2.111,-0.09C-2.148,0.09 -2.075,0.275 -1.926,0.383C-1.844,0.444 -1.746,0.473 -1.648,0.473C-1.569,0.473 -1.49,0.455 -1.418,0.414L0,-0.376L1.417,0.414C1.49,0.455 1.569,0.473 1.648,0.473C1.746,0.473 1.843,0.444 1.926,0.383C2.075,0.275 2.148,0.09 2.111,-0.09L1.798,-1.682L2.988,-2.787C3.123,-2.912 3.172,-3.104 3.116,-3.28C3.059,-3.455 2.905,-3.581 2.723,-3.602L1.111,-3.797L0.429,-5.269C0.351,-5.437 0.184,-5.544 0,-5.544" style="fill:white;fill-rule:nonzero;"/>
    </g>
    <g transform="matrix(5.55556,0,0,5.55556,56.2273,10.8672)">
        <path d="M0,5.543C-0.039,5.543 -0.08,5.534 -0.115,5.515L-1.648,4.66L-3.181,5.515C-3.217,5.534 -3.256,5.543 -3.295,5.543C-3.345,5.543 -3.394,5.528 -3.434,5.498C-3.51,5.444 -3.545,5.351 -3.528,5.261L-3.189,3.54L-4.475,2.346C-4.543,2.283 -4.568,2.187 -4.54,2.099C-4.512,2.011 -4.435,1.949 -4.343,1.939L-2.601,1.728L-1.863,0.136C-1.824,0.053 -1.74,0 -1.648,0C-1.555,0 -1.473,0.053 -1.434,0.136L-0.695,1.728L1.045,1.939C1.138,1.949 1.214,2.011 1.242,2.099C1.27,2.187 1.246,2.283 1.179,2.346L-0.107,3.54L0.232,5.261C0.25,5.351 0.213,5.444 0.139,5.498C0.097,5.528 0.049,5.543 0,5.543" style="fill:rgb(253,186,17);fill-rule:nonzero;"/>
    </g>
    <g transform="matrix(5.55556,0,0,5.55556,47.0695,40.3461)">
        <path d="M0,-5.071L0.794,-3.359L2.666,-3.134L1.284,-1.85L1.648,0.001L0,-0.917L-1.648,0.001L-1.284,-1.85L-2.666,-3.134L-0.794,-3.359L0,-5.071ZM0,-5.544C-0.184,-5.544 -0.351,-5.437 -0.429,-5.269L-1.111,-3.797L-2.723,-3.602C-2.905,-3.581 -3.059,-3.455 -3.116,-3.28C-3.173,-3.104 -3.123,-2.912 -2.988,-2.787L-1.798,-1.682L-2.111,-0.089C-2.148,0.09 -2.075,0.275 -1.926,0.383C-1.843,0.444 -1.746,0.473 -1.648,0.473C-1.569,0.473 -1.49,0.455 -1.418,0.414L0,-0.376L1.417,0.414C1.49,0.455 1.569,0.473 1.648,0.473C1.746,0.473 1.844,0.444 1.926,0.383C2.075,0.275 2.148,0.09 2.111,-0.089L1.798,-1.682L2.988,-2.787C3.123,-2.912 3.172,-3.104 3.116,-3.28C3.059,-3.455 2.905,-3.581 2.723,-3.602L1.111,-3.797L0.429,-5.269C0.351,-5.437 0.184,-5.544 0,-5.544" style="fill:white;fill-rule:nonzero;"/>
    </g>
</svg>
