<?xml version="1.0" encoding="UTF-8" standalone="no"?>
<!DOCTYPE svg PUBLIC "-//W3C//DTD SVG 1.1//EN" "http://www.w3.org/Graphics/SVG/1.1/DTD/svg11.dtd">
<svg width="100%" height="100%" viewBox="0 0 10 12" version="1.1" xmlns="http://www.w3.org/2000/svg" xmlns:xlink="http://www.w3.org/1999/xlink" xml:space="preserve" xmlns:serif="http://www.serif.com/" style="fill-rule:evenodd;clip-rule:evenodd;stroke-linejoin:round;stroke-miterlimit:2;">
    <g transform="matrix(1,0,0,1,9.817,2.876)">
        <path d="M0,5.625C0.032,5.638 0.051,5.645 0.051,5.645L-0.039,5.593C-0.437,5.255 -2.559,3.424 -2.577,2.807C-2.598,2.19 -0.447,0.359 -0.032,0.014L0.025,-0.021C0.025,-0.021 0.014,-0.016 -0.007,-0.009C0.021,-0.031 0.036,-0.045 0.036,-0.045L-0.053,0.008C-0.547,0.184 -3.192,1.105 -3.736,0.814C-4.28,0.521 -4.79,-2.256 -4.884,-2.788L-4.884,-2.854C-4.884,-2.854 -4.885,-2.843 -4.889,-2.821C-4.894,-2.855 -4.897,-2.876 -4.897,-2.876L-4.896,-2.772C-4.991,-2.258 -5.516,0.495 -6.041,0.821C-6.565,1.146 -9.228,0.198 -9.733,0.013L-9.792,-0.021C-9.792,-0.021 -9.783,-0.014 -9.765,0C-9.797,-0.011 -9.817,-0.019 -9.817,-0.019L-9.727,0.033C-9.329,0.371 -7.208,2.203 -7.188,2.82C-7.167,3.437 -9.32,5.268 -9.733,5.613L-9.792,5.646L-9.76,5.636C-9.787,5.658 -9.801,5.67 -9.801,5.67L-9.712,5.618C-9.219,5.442 -6.573,4.521 -6.028,4.813C-5.485,5.104 -4.976,7.884 -4.884,8.414L-4.884,8.481C-4.884,8.481 -4.881,8.469 -4.877,8.447C-4.871,8.483 -4.867,8.501 -4.867,8.501L-4.867,8.398C-4.773,7.885 -4.249,5.132 -3.725,4.807C-3.201,4.48 -0.538,5.43 -0.032,5.613L0.025,5.646C0.025,5.646 0.016,5.64 0,5.625" style="fill:rgb(34,24,21);fill-rule:nonzero;"/>
    </g>
</svg>
