<?xml version="1.0" encoding="UTF-8" standalone="no"?>
<!DOCTYPE svg PUBLIC "-//W3C//DTD SVG 1.1//EN" "http://www.w3.org/Graphics/SVG/1.1/DTD/svg11.dtd">
<svg width="100%" height="100%" viewBox="0 0 10 10" version="1.1" xmlns="http://www.w3.org/2000/svg" xmlns:xlink="http://www.w3.org/1999/xlink" xml:space="preserve" xmlns:serif="http://www.serif.com/" style="fill-rule:evenodd;clip-rule:evenodd;stroke-linejoin:round;stroke-miterlimit:2;">
    <g transform="matrix(1,0,0,1,6.94689,2.714)">
        <path d="M0,3.975C-0.444,3.865 -0.987,3.717 -1.175,3.663L-1.427,2.721L0,3.975ZM-3.237,-0.272C-3.251,-0.284 -3.27,-0.284 -3.283,-0.275C-3.297,-0.267 -3.304,-0.25 -3.3,-0.233L-2.608,2.203L-2.284,3.412C-2.873,3.249 -3.435,2.87 -3.83,2.365C-4.427,1.6 -4.686,0.713 -4.539,-0.069C-4.434,-0.641 -4.119,-1.096 -3.638,-1.384C-2.311,-2.175 -0.187,-1.734 1.24,-0.391C1.257,-0.377 1.279,-0.379 1.294,-0.392C1.309,-0.406 1.309,-0.428 1.296,-0.444C0.059,-1.866 -1.671,-2.714 -3.329,-2.714C-4.555,-2.714 -5.593,-2.245 -6.246,-1.392C-6.935,-0.494 -7.123,0.709 -6.779,1.999C-6.141,4.381 -3.842,6.382 -1.431,6.656C-1.233,6.678 -1.039,6.689 -0.853,6.689C0.653,6.689 1.89,5.966 2.443,4.714L-3.237,-0.272Z" style="fill:rgb(34,24,21);fill-rule:nonzero;"/>
    </g>
</svg>
