<?xml version="1.0" encoding="UTF-8" standalone="no"?>
<!DOCTYPE svg PUBLIC "-//W3C//DTD SVG 1.1//EN" "http://www.w3.org/Graphics/SVG/1.1/DTD/svg11.dtd">
<svg width="100%" height="100%" viewBox="0 0 11 10" version="1.1" xmlns="http://www.w3.org/2000/svg" xmlns:xlink="http://www.w3.org/1999/xlink" xml:space="preserve" xmlns:serif="http://www.serif.com/" style="fill-rule:evenodd;clip-rule:evenodd;stroke-linejoin:round;stroke-miterlimit:2;">
    <g transform="matrix(1,0,0,1,5.757,6.051)">
        <path d="M0,-2.224C-0.457,-1.37 -0.637,0.376 -0.64,0.393C-0.64,0.399 -0.642,0.405 -0.644,0.41C-0.646,0.417 -0.646,0.423 -0.65,0.429C-0.653,0.437 -0.657,0.442 -0.662,0.449C-0.667,0.453 -0.669,0.46 -0.673,0.464C-0.68,0.469 -0.687,0.472 -0.693,0.477C-0.698,0.48 -0.702,0.485 -0.709,0.488C-0.716,0.491 -0.724,0.492 -0.731,0.494C-0.737,0.495 -0.742,0.497 -0.748,0.497L-0.76,0.497C-0.767,0.497 -0.771,0.495 -0.776,0.494C-0.783,0.492 -0.792,0.491 -0.8,0.488C-0.806,0.485 -0.811,0.48 -0.814,0.477C-0.822,0.472 -0.828,0.469 -0.835,0.464C-0.839,0.46 -0.841,0.453 -0.847,0.449C-0.851,0.442 -0.856,0.437 -0.858,0.429C-0.861,0.423 -0.862,0.417 -0.864,0.41C-0.865,0.405 -0.869,0.399 -0.869,0.393C-0.87,0.376 -1.051,-1.37 -1.508,-2.224C-2.035,-3.215 -3.547,-3.898 -3.563,-3.905C-3.619,-3.93 -3.646,-3.995 -3.625,-4.051C-3.603,-4.11 -3.539,-4.139 -3.48,-4.12C-3.476,-4.119 -2.921,-3.945 -2.389,-3.945C-2.138,-3.945 -1.934,-3.982 -1.78,-4.058C-1.116,-4.385 -0.87,-5.938 -0.869,-5.953C-0.867,-5.957 -0.865,-5.961 -0.864,-5.965C-0.861,-5.973 -0.86,-5.98 -0.856,-5.987C-0.854,-5.994 -0.851,-5.997 -0.847,-6.002C-0.841,-6.009 -0.836,-6.016 -0.831,-6.021C-0.826,-6.026 -0.822,-6.028 -0.817,-6.03C-0.811,-6.035 -0.803,-6.039 -0.795,-6.043C-0.787,-6.045 -0.783,-6.045 -0.776,-6.048C-0.771,-6.048 -0.768,-6.051 -0.763,-6.051C-0.76,-6.051 -0.757,-6.05 -0.755,-6.05C-0.751,-6.05 -0.748,-6.051 -0.745,-6.051C-0.741,-6.051 -0.737,-6.049 -0.732,-6.048C-0.727,-6.047 -0.719,-6.045 -0.712,-6.042C-0.705,-6.039 -0.698,-6.037 -0.693,-6.033C-0.687,-6.028 -0.683,-6.026 -0.677,-6.021C-0.671,-6.016 -0.667,-6.009 -0.662,-6.003C-0.658,-5.997 -0.655,-5.994 -0.651,-5.987C-0.647,-5.98 -0.646,-5.973 -0.645,-5.966C-0.642,-5.961 -0.642,-5.957 -0.64,-5.953C-0.637,-5.938 -0.39,-4.385 0.271,-4.058C0.426,-3.982 0.63,-3.945 0.881,-3.945C1.415,-3.945 1.969,-4.119 1.975,-4.12C2.035,-4.139 2.097,-4.107 2.119,-4.048C2.139,-3.989 2.107,-3.923 2.049,-3.903C2.039,-3.898 0.529,-3.219 0,-2.224M4.249,-1.269C4.249,2.961 -0.483,3.818 -0.531,3.826C-0.534,3.827 -0.537,3.827 -0.539,3.827C-0.552,3.827 -0.563,3.822 -0.571,3.815C-0.584,3.805 -0.59,3.79 -0.59,3.776C-0.59,3.751 -0.545,1.306 1.343,0.282C2.604,-0.399 3.215,-1.313 3.215,-2.51C3.215,-3.852 2.426,-5.007 2.417,-5.019C2.404,-5.039 2.406,-5.066 2.423,-5.082C2.438,-5.101 2.465,-5.102 2.485,-5.089C2.504,-5.078 4.249,-3.911 4.249,-1.269M-0.917,3.776C-0.917,3.79 -0.924,3.805 -0.936,3.815C-0.945,3.822 -0.957,3.827 -0.968,3.827C-0.971,3.827 -0.974,3.827 -0.977,3.826C-1.024,3.818 -5.757,2.961 -5.757,-1.269C-5.757,-3.911 -4.012,-5.078 -3.995,-5.089C-3.975,-5.102 -3.947,-5.101 -3.931,-5.082C-3.915,-5.066 -3.912,-5.039 -3.927,-5.019C-3.935,-5.007 -4.722,-3.852 -4.722,-2.51C-4.722,-1.313 -4.111,-0.399 -2.851,0.282C-0.964,1.306 -0.917,3.751 -0.917,3.776" style="fill:rgb(34,24,21);fill-rule:nonzero;"/>
    </g>
</svg>
