<?xml version="1.0" encoding="UTF-8" standalone="no"?>
<!DOCTYPE svg PUBLIC "-//W3C//DTD SVG 1.1//EN" "http://www.w3.org/Graphics/SVG/1.1/DTD/svg11.dtd">
<svg width="100%" height="100%" viewBox="0 0 9 10" version="1.1" xmlns="http://www.w3.org/2000/svg" xmlns:xlink="http://www.w3.org/1999/xlink" xml:space="preserve" xmlns:serif="http://www.serif.com/" style="fill-rule:evenodd;clip-rule:evenodd;stroke-linejoin:round;stroke-miterlimit:2;">
    <g transform="matrix(1,0,0,1,8.425,5.058)">
        <path d="M0,-0.259L-2.759,-0.259L-3.18,0.163L-3.18,1.595L-3.21,1.626L-3.686,2.105L-3.717,2.137L-4.669,2.137L-5.084,2.553L-5.084,3.511L-5.113,3.543L-5.59,4.022L-5.62,4.053L-6.034,4.053L-6.034,4.799L-1.965,4.799L-1.965,3.902L-1.934,3.871L-1.459,3.392L-1.427,3.361L0,3.361L0.414,2.944L0.414,0.157L0,-0.259ZM-5.783,2.944L-5.783,1.985L-5.752,1.954L-5.277,1.474L-5.246,1.444L-4.282,1.444L-3.867,1.027L-3.867,0.157L-4.282,-0.259L-8.012,-0.259L-8.425,0.157L-8.425,2.944L-8.012,3.361L-6.196,3.361L-5.783,2.944ZM-3.342,-0.987L-2.284,-0.987C-2.072,-0.987 -1.901,-1.18 -1.901,-1.415L-1.901,-4.628C-1.901,-4.75 -1.949,-4.867 -2.03,-4.949C-2.101,-5.019 -2.19,-5.058 -2.284,-5.058L-3.342,-5.058C-3.435,-5.058 -3.525,-5.019 -3.597,-4.949C-3.676,-4.867 -3.723,-4.75 -3.723,-4.628L-3.723,-1.415C-3.723,-1.293 -3.676,-1.177 -3.597,-1.095C-3.525,-1.026 -3.435,-0.987 -3.342,-0.987M-5.72,-0.987L-4.661,-0.987C-4.451,-0.987 -4.28,-1.18 -4.28,-1.415L-4.28,-4.628C-4.28,-4.75 -4.326,-4.867 -4.407,-4.949C-4.478,-5.019 -4.568,-5.058 -4.661,-5.058L-5.72,-5.058C-5.813,-5.058 -5.903,-5.019 -5.974,-4.949C-6.055,-4.867 -6.103,-4.75 -6.103,-4.628L-6.103,-1.415C-6.103,-1.293 -6.055,-1.177 -5.974,-1.095C-5.903,-1.026 -5.813,-0.987 -5.72,-0.987M-1.001,-0.873L0.028,-0.873C0.231,-0.873 0.396,-1.04 0.396,-1.246L0.396,-4.121C0.396,-4.222 0.357,-4.316 0.289,-4.386C0.219,-4.455 0.128,-4.493 0.028,-4.493L-1.001,-4.493C-1.1,-4.493 -1.191,-4.455 -1.263,-4.387C-1.332,-4.316 -1.371,-4.222 -1.371,-4.121L-1.371,-1.246C-1.371,-1.146 -1.332,-1.052 -1.263,-0.982C-1.191,-0.912 -1.1,-0.873 -1.001,-0.873M-8.309,-0.965C-8.38,-1.036 -8.418,-1.129 -8.418,-1.23L-8.418,-4.106C-8.418,-4.205 -8.38,-4.299 -8.309,-4.37C-8.239,-4.439 -8.146,-4.478 -8.048,-4.478L-7.018,-4.478C-6.92,-4.478 -6.828,-4.439 -6.758,-4.37C-6.687,-4.299 -6.649,-4.205 -6.649,-4.105L-6.649,-1.23C-6.649,-1.025 -6.815,-0.857 -7.018,-0.857L-8.048,-0.859C-8.146,-0.859 -8.239,-0.896 -8.309,-0.965" style="fill:rgb(34,24,21);fill-rule:nonzero;"/>
    </g>
</svg>
