<?xml version="1.0" encoding="UTF-8" standalone="no"?>
<!DOCTYPE svg PUBLIC "-//W3C//DTD SVG 1.1//EN" "http://www.w3.org/Graphics/SVG/1.1/DTD/svg11.dtd">
<svg width="100%" height="100%" viewBox="0 0 11 11" version="1.1" xmlns="http://www.w3.org/2000/svg" xmlns:xlink="http://www.w3.org/1999/xlink" xml:space="preserve" xmlns:serif="http://www.serif.com/" style="fill-rule:evenodd;clip-rule:evenodd;stroke-linejoin:round;stroke-miterlimit:2;">
    <g transform="matrix(1,0,0,1,6.779,1.464)">
        <path d="M0,7.734C0.642,8.598 -1.044,9.004 -1.76,9.004C-2.478,9.004 -3.223,8.752 -3.438,8.586C-4.26,7.949 -3.647,7.52 -3.647,7.52C-3.647,7.52 -2.909,6.706 -4.072,6.359C-2.62,6.381 -2.922,7.055 -2.878,7.16C-2.878,7.16 -2.11,6.507 -2.694,6.017C-3.684,5.191 -2.189,4.473 -1.473,4.338C-1.65,4.479 -2.192,5.272 -1.821,5.429C-1.016,5.768 -1.178,6.699 -1.255,6.862C-1.094,6.653 -0.908,5.912 0.304,5.946C-0.817,6.381 -0.226,7.432 0,7.734M3.399,4.631C2.95,5.269 1.496,5.958 0.847,5.874C1.218,5.661 2.42,4.898 2.7,3.787C2.842,3.22 2.719,2.654 2.333,2.103L2.252,1.987L2.245,2.13C2.203,3.04 1.041,3.63 -0.056,3.739C0.189,2.849 0.043,1.213 -0.637,0.027C-1.09,-0.765 -1.707,-1.255 -2.47,-1.433L-2.605,-1.464L-2.52,-1.355C-1.514,-0.078 -2.059,0.36 -2.457,0.679C-3.464,1.49 -4.019,1.998 -4.249,2.522C-4.478,3.048 -4.369,3.579 -4.086,4.279C-4.751,3.703 -5.662,2.84 -4.583,1.387L-4.653,1.32C-5.563,2.019 -6.078,2.789 -6.186,3.607C-6.341,4.816 -5.584,5.8 -5.219,6.274C-5.149,6.362 -5.082,6.452 -5.066,6.487C-5.069,6.488 -5.072,6.489 -5.078,6.49C-5.336,6.521 -6.56,5.613 -6.694,5.44L-6.779,5.48C-6.434,6.918 -5.42,7.804 -4.63,8.294C-3.731,8.852 -2.617,9.198 -1.721,9.198C-1.035,9.196 0.069,8.951 1.105,8.265C2.336,7.45 3.161,6.208 3.487,4.67L3.399,4.631Z" style="fill:rgb(34,24,21);fill-rule:nonzero;"/>
    </g>
</svg>
