<?xml version="1.0" encoding="UTF-8" standalone="no"?>
<!DOCTYPE svg PUBLIC "-//W3C//DTD SVG 1.1//EN" "http://www.w3.org/Graphics/SVG/1.1/DTD/svg11.dtd">
<svg width="100%" height="100%" viewBox="0 0 10 12" version="1.1" xmlns="http://www.w3.org/2000/svg" xmlns:xlink="http://www.w3.org/1999/xlink" xml:space="preserve" xmlns:serif="http://www.serif.com/" style="fill-rule:evenodd;clip-rule:evenodd;stroke-linejoin:round;stroke-miterlimit:2;">
    <g transform="matrix(1,0,0,1,8.33302,4.276)">
        <path d="M0,2.65C-2.443,2.177 -3.793,3.359 -4.216,3.947C-4.292,4.898 -4.273,5.495 -4.273,5.495C-4.273,5.495 -4.675,4.856 -4.728,3.617C-5.179,3.052 -6.005,2.293 -7.276,2.461C-6.24,1.973 -5.244,2.361 -4.708,2.776C-4.675,2.395 -4.608,1.974 -4.498,1.516C-4.897,1.006 -5.576,0.462 -6.841,0.554C-5.572,0.158 -4.729,0.47 -4.314,0.864C-4.232,0.605 -4.135,0.335 -4.022,0.055C-4.291,-0.411 -4.82,-1.091 -5.723,-1.105C-4.809,-1.324 -4.065,-0.87 -3.761,-0.554C-3.423,-1.284 -2.977,-2.078 -2.398,-2.932C-2.788,-2.162 -3.097,-1.375 -3.343,-0.605C-2.87,-0.943 -1.839,-1.365 -0.438,-0.914C-2.025,-1.128 -3.093,-0.342 -3.561,0.134C-3.638,0.415 -3.705,0.692 -3.768,0.963C-3.116,0.5 -1.524,-0.03 0.171,0.936C-1.741,0.238 -3.292,1.171 -3.924,1.728C-4.01,2.191 -4.076,2.628 -4.124,3.028C-3.661,2.64 -2.351,1.869 0,2.65M1.537,2.005C1.53,-0.647 -1.747,-4.084 -1.591,-4.276C-2.138,-4.169 -8.319,-1.663 -8.333,2.017C-8.341,4.28 -6.129,4.94 -5.108,5.125C-4.954,6.248 -4.635,6.926 -4.635,6.926L-3.259,6.913C-3.259,6.913 -3.425,6.332 -3.5,5.227C-3.104,5.181 1.543,4.575 1.537,2.005" style="fill:rgb(34,24,21);fill-rule:nonzero;"/>
    </g>
</svg>
