<?xml version="1.0" encoding="UTF-8" standalone="no"?>
<!DOCTYPE svg PUBLIC "-//W3C//DTD SVG 1.1//EN" "http://www.w3.org/Graphics/SVG/1.1/DTD/svg11.dtd">
<svg width="100%" height="100%" viewBox="0 0 11 9" version="1.1" xmlns="http://www.w3.org/2000/svg" xmlns:xlink="http://www.w3.org/1999/xlink" xml:space="preserve" xmlns:serif="http://www.serif.com/" style="fill-rule:evenodd;clip-rule:evenodd;stroke-linejoin:round;stroke-miterlimit:2;">
    <g transform="matrix(1,0,0,1,0.884,0.0002)">
        <path d="M0,4.178L-0.881,2.646L-0.884,2.647L0.647,0.002L2.421,0L3.08,1.15L1.312,1.155L1.314,1.149L0.455,2.633L0.446,2.642L1.33,4.178L0,4.178Z" style="fill:rgb(34,24,21);fill-rule:nonzero;"/>
    </g>
    <g transform="matrix(1,0,0,1,6.7366,6.2871)">
        <path d="M0,2.685L-3.057,2.681L-3.944,1.147L-3.278,0L-2.391,1.531L-2.397,1.532L-0.681,1.533L-0.669,1.537L0.218,0.003L0.885,1.154L-0.002,2.683L0,2.685Z" style="fill:rgb(34,24,21);fill-rule:nonzero;"/>
    </g>
    <g transform="matrix(1,0,0,1,5.2053,2.2595)">
        <path d="M0,4.321L-2.446,0L2.448,0L0,4.321Z" style="fill:rgb(34,24,21);fill-rule:nonzero;"/>
    </g>
    <g transform="matrix(1,0,0,1,9.5276,0)">
        <path d="M0,4.185L-1.327,4.181L-0.444,2.65L-0.442,2.653L-1.298,1.166L-1.301,1.155L-3.073,1.153L-2.408,0L-0.642,0.003L-0.642,0L0.885,2.65L0,4.185Z" style="fill:rgb(34,24,21);fill-rule:nonzero;"/>
    </g>
</svg>
