<?xml version="1.0" encoding="UTF-8" standalone="no"?>
<!DOCTYPE svg PUBLIC "-//W3C//DTD SVG 1.1//EN" "http://www.w3.org/Graphics/SVG/1.1/DTD/svg11.dtd">
<svg width="100%" height="100%" viewBox="0 0 12 9" version="1.1" xmlns="http://www.w3.org/2000/svg" xmlns:xlink="http://www.w3.org/1999/xlink" xml:space="preserve" xmlns:serif="http://www.serif.com/" style="fill-rule:evenodd;clip-rule:evenodd;stroke-linejoin:round;stroke-miterlimit:2;">
    <g transform="matrix(1,0,0,1,5.698,1.016)">
        <path d="M0,6.194C-2.585,6.194 -4.041,4.164 -4.552,3.277C-4.121,2.456 -2.993,0.677 -1.104,0.148C-2.143,0.572 -2.877,1.607 -2.877,2.821C-2.877,4.411 -1.619,5.697 -0.068,5.697C1.483,5.697 2.741,4.411 2.741,2.821C2.741,1.515 1.892,0.415 0.729,0.063C2.844,0.443 4.093,2.403 4.552,3.277C4.041,4.164 2.586,6.194 0,6.194M-0.271,1.651C-0.303,1.619 -0.337,1.592 -0.374,1.566C-0.274,1.541 -0.173,1.527 -0.068,1.527C0.63,1.527 1.196,2.106 1.196,2.821C1.196,3.536 0.63,4.116 -0.068,4.116C-0.714,4.116 -1.247,3.618 -1.322,2.975C-1.179,3.117 -0.993,3.194 -0.8,3.194C-0.604,3.194 -0.415,3.116 -0.271,2.971C-0.104,2.804 -0.009,2.564 -0.009,2.311C-0.009,2.057 -0.104,1.817 -0.271,1.651M5.687,3.297C5.688,3.295 5.69,3.291 5.69,3.29L5.683,3.286C5.496,2.842 3.773,-1.016 0,-1.016C-3.773,-1.016 -5.498,2.842 -5.683,3.286L-5.691,3.29C-5.689,3.291 -5.688,3.295 -5.687,3.297C-5.692,3.308 -5.696,3.318 -5.698,3.323L-5.669,3.335C-5.46,3.782 -3.729,7.21 0,7.21C3.728,7.21 5.46,3.782 5.67,3.335L5.698,3.323C5.697,3.318 5.692,3.308 5.687,3.297" style="fill:rgb(34,24,21);fill-rule:nonzero;"/>
    </g>
</svg>
