<?xml version="1.0" encoding="UTF-8" standalone="no"?>
<!DOCTYPE svg PUBLIC "-//W3C//DTD SVG 1.1//EN" "http://www.w3.org/Graphics/SVG/1.1/DTD/svg11.dtd">
<svg width="100%" height="100%" viewBox="0 0 10 10" version="1.1" xmlns="http://www.w3.org/2000/svg" xmlns:xlink="http://www.w3.org/1999/xlink" xml:space="preserve" xmlns:serif="http://www.serif.com/" style="fill-rule:evenodd;clip-rule:evenodd;stroke-linejoin:round;stroke-miterlimit:2;">
    <g transform="matrix(1,0,0,1,2.32116,1.9)">
        <path d="M0,5.388C0.28,5.147 1.115,5.243 1.866,5.602C2.614,5.961 2.995,6.448 2.714,6.687C2.436,6.928 1.601,6.831 0.851,6.473C0.102,6.114 -0.279,5.628 0,5.388M7.239,-1.9C-1.486,-1.807 -2.794,2.619 -2.197,4.487C-1.698,6.047 0.247,6.809 1.08,7.022C2.123,7.288 3.613,7.114 4.249,6.915C4.74,6.764 5.343,6.475 5.729,5.863C6.806,4.154 4.999,2.793 4.736,2.557C4.566,2.406 3.885,1.642 3.834,0.72C3.782,-0.238 4.45,-1.325 7.239,-1.9" style="fill:rgb(34,24,21);fill-rule:nonzero;"/>
    </g>
</svg>
